# AST/ASF file generated using VICON BodyLanguage
# -----------------------------------------------
:version 1.10
:name VICON
:units
  mass 1.0
  length 0.45
  angle deg
:documentation
   .ast/.asf automatically generated from VICON data using
   VICON BodyBuilder and BodyLanguage model FoxedUp or BRILLIANT.MOD
:root
   order TX TY TZ RX RY RZ
   axis XYZ
   position 0 0 0  
   orientation 0 0 0 
:bonedata
  begin
     id 1 
     name lhipjoint
     direction 0.692814 -0.645514 0.321437 
     length 2.38754 
     axis 0 0 0  XYZ
  end
  begin
     id 2 
     name lfemur
     direction 0.34202 -0.939693 0  
     length 6.41921  
     axis 0 0 20  XYZ
    dof rx ry rz
    limits (-160.0 20.0)
           (-70.0 70.0)
           (-60.0 70.0)
  end
  begin
     id 3 
     name ltibia
     direction 0.34202 -0.939693 0   
     length 6.98247   
     axis 0 0 20   XYZ
    dof rx
    limits (-10.0 170.0)
  end
  begin
     id 4 
     name lfoot
     direction 0.0947186 -0.260237 0.960888   
     length 1.83034   
     axis -90 7.62852e-016 20   XYZ
    dof rx rz
    limits (-45.0 90.0)
           (-70.0 20.0)
  end
  begin
     id 5 
     name ltoes
     direction 1.53538e-011 -4.21952e-011 1   
     length 0.920499   
     axis -90 7.62852e-016 20   XYZ
    dof rx
    limits (-90.0 20.0)
  end
  begin
     id 6 
     name rhipjoint
     direction -0.631686 -0.693949 0.345555   
     length 2.2209  
     axis 0 0 0  XYZ 
  end
  begin
     id 7 
     name rfemur
     direction -0.34202 -0.939693 0   
     length 6.49542   
     axis 0 0 -20   XYZ
    dof rx ry rz
    limits (-160.0 20.0)
           (-70.0 70.0)
           (-70.0 60.0)
  end
  begin
     id 8 
     name rtibia
     direction -0.34202 -0.939693 0   
     length 7.21712   
     axis 0 0 -20   XYZ
    dof rx
    limits (-10.0 170.0)
 end
 begin
     id 9 
     name rfoot
     direction -0.0825378 -0.226771 0.970444   
     length 1.89724  
     axis -90 -7.62852e-016 -20   XYZ
    dof rx rz
    limits (-45.0 90.0)
           (-20.0 70.0)
  end
  begin
     id 10 
     name rtoes
     direction -1.53515e-011 -4.22016e-011 1   
     length 0.955868   
     axis -90 -7.62852e-016 -20   XYZ
    dof rx
    limits (-90.0 20.0)
  end
  begin
     id 11 
     name lowerback
     direction -0.0104711 0.984802 -0.173368   
     length 1.84931   
     axis 0 0 0   XYZ
    dof rx ry rz
    limits (-20.0 45.0)
           (-30.0 30.0)
           (-30.0 30.0)
  end
  begin
     id 12 
     name upperback
     direction -0.00286433 0.999996 -0.000382853   
     length 1.85768   
     axis 0 0 0   XYZ
    dof rx ry rz
    limits (-20.0 45.0)
           (-30.0 30.0)
           (-30.0 30.0)
  end
  begin
     id 13 
     name thorax
     direction 0.00167534 0.996793 0.0800069   
     length 1.92   
     axis 0 0 0   XYZ
    dof rx ry rz
    limits (-20.0 45.0)
           (-30.0 30.0)
           (-30.0 30.0)
  end
  begin
     id 14 
     name lowerneck
     direction -0.0672491 0.995415 0.068018   
     length 1.58923   
     axis 0 0 0   XYZ
    dof rx ry rz
    limits (-20.0 45.0)
           (-30.0 30.0)
           (-30.0 30.0)
  end
  begin
     id 15 
     name upperneck
     direction 0.0958019 0.982476 -0.159884   
     length 1.60189   
     axis 0 0 0   XYZ
    dof rx ry rz
    limits (-20.0 45.0)
           (-30.0 30.0)
           (-30.0 30.0)
  end
  begin
     id 16
     name head
     direction 0.032989 0.997338 -0.0650226  
     length 1.61681  
     axis 0 0 0   XYZ
    dof rx ry rz
    limits (-20.0 45.0)
           (-30.0 30.0)
           (-30.0 30.0)
  end
  begin
     id 17 
     name lclavicle
     direction 0.954279 0.298875 -0.00496069  
     length 2.99449  
     axis 0 0 0   XYZ
    dof ry rz
    limits (-20.0 10.0)
           (0.0 20.0)
  end
  begin
     id 18 
     name lhumerus
     direction 1 -4.48985e-011 -4.2057e-027   
     length 4.79185   
     axis 180 -30 -90   XYZ
    dof rx ry rz
    limits (-60.0 90.0)
           (-90.0 90.0)
           (-90.0 90.0)
  end
  begin
     id 19
     name lradius
     direction 1 -4.48945e-011 1.15441e-028   
     length 2.65553   
     axis 180 -30 -90   XYZ
    dof rx
    limits (-10.0 170.0)
  end
  begin
     id 20
     name lwrist
     direction 1 -4.4899e-011 4.8894e-028   
     length 1.32777   
     axis -2.56392e-016 90 90   XYZ
    dof ry
    limits (-180.0 0.0)
 end
  begin
     id 21 
     name lhand
     direction 1 -4.48908e-011 9.7788e-028   
     length 0.743904   
     axis -6.23971e-016 90 90   XYZ
    dof rx rz
    limits (-90.0 90.0)
           (-45.0 45.0)
  end
  begin
     id 22 
     name lfingers
     direction 1 -4.49068e-011 1.95576e-027   
     length 0.599754   
     axis -1.24794e-015 90 90   XYZ
    dof rx
    limits (0.0 90.0)
  end
  begin
     id 23
     name lthumb
     direction 0.707107 -6.34883e-011 0.707107   
     length 0.861131   
     axis -90 45 2.85299e-015   XYZ
    dof rx rz
    limits (-45.0 45.0)
           (-45.0 45.0)
  end
  begin
     id 24 
     name rclavicle
     direction -0.957921 0.286916 0.00811568   
     length 3.06817  
     axis 0 0 0   XYZ 
    dof ry rz
    limits (-10.0 20.0)
           (-20.0 0.0)
  end
  begin
     id 25 
     name rhumerus
     direction -1 -4.48971e-011 -3.07942e-027  
     length 4.77254   
     axis 180 30 90   XYZ
    dof rx ry rz
    limits (-90.0 60.0)
           (-90.0 90.0)
           (-90.0 90.0)
  end
  begin
     id 26 
     name rradius
     direction -1 -4.48957e-011 -9.6815e-028   
     length 2.75995   
     axis 180 30 90   XYZ
    dof rx
    limits (-10.0 170.0)
  end
  begin
     id 27 
     name rwrist
     direction -1 -4.48979e-011 4.8894e-028   
     length 1.37997   
     axis -2.56392e-016 -90 -90   XYZ
    dof ry
    limits (-180.0 0.0)
  end
  begin
     id 28
     name rhand
     direction -1 -4.48906e-011 9.7788e-028   
     length 0.701619   
     axis -6.23971e-016 -90 -90   XYZ
    dof rx rz
    limits (-90.0 90.0)
           (-45.0 45.0)
  end
  begin
     id 29
     name rfingers
     direction -1 -4.49018e-011 1.95576e-027   
     length 0.565663   
     axis -1.24794e-015 -90 -90   XYZ
    dof rx
    limits (0.0 90.0)
  end
  begin
     id 30
     name rthumb
     direction -0.707107 -6.34881e-011 0.707107   
     length 0.812183   
     axis -90 -45 -2.85299e-015   XYZ
    dof rx rz
    limits (-45.0 45.0)
           (-45.0 45.0)
  end
:hierarchy
  begin
    root lhipjoint rhipjoint lowerback
    lhipjoint lfemur
    lfemur ltibia
    ltibia lfoot
    lfoot ltoes
    rhipjoint rfemur
    rfemur rtibia
    rtibia rfoot
    rfoot rtoes
    lowerback upperback
    upperback thorax
    thorax lowerneck lclavicle rclavicle
    lowerneck upperneck
    upperneck head
    lclavicle lhumerus
    lhumerus lradius
    lradius lwrist
    lwrist lhand lthumb
    lhand lfingers
    rclavicle rhumerus
    rhumerus rradius
    rradius rwrist
    rwrist rhand rthumb
    rhand rfingers
  end

#!OML:ASF F:\VICON\USERDATA\INSTALL\rory3\rory3.ASF
:FULLY-SPECIFIED
:DEGREES
578
root -0.207971 15.2002 -1.12808 -5.94407 1.98338 1.21704
lowerback 14.72 1.12266 -1.03572
upperback 8.32476 1.34399 -1.68157
thorax 0.558866 0.683569 -1.35773
lowerneck -2.61301 -1.22061 -7.1405
upperneck 17.802 -1.9273 5.53775
head 5.91364 -1.00527 2.83698
rclavicle -1.46107e-014 -3.57812e-015
rhumerus -71.4545 67.1898 -88.3972
rradius 132.559
rwrist -35.2956
rhand 38.2814 11.3216
rfingers 7.12502
rthumb 60.9558 -1.41456
lclavicle -1.46107e-014 -3.57812e-015
lhumerus -70.8622 -77.5516 89.1978
lradius 131.063
lwrist 71.0151
lhand 22.0599 40.3441
lfingers 7.12502
lthumb 46.449 63.2493
rfemur -14.8938 0.295344 16.5467
rtibia 46.8564
rfoot -20.515 -9.32477
rtoes -15.0495
lfemur -13.6062 4.10334 -15.7799
ltibia 41.7685
lfoot -14.8783 -5.34155
ltoes -7.5166
579
root -0.192925 15.2221 -1.10629 -5.82812 2.06321 1.16451
lowerback 14.4132 1.13202 -1.10502
upperback 8.1757 1.3521 -1.68883
thorax 0.561544 0.685167 -1.32217
lowerneck -2.18438 -0.961735 -7.01894
upperneck 17.8903 -1.59561 5.42508
head 5.84331 -0.850405 2.80221
rclavicle 1.40143e-014 1.43125e-014
rhumerus -71.3505 66.7838 -87.4215
rradius 132.654
rwrist -35.1352
rhand 38.0613 11.3643
rfingers 7.12502
rthumb 60.7695 -1.58193
lclavicle 1.40143e-014 1.43125e-014
lhumerus -70.6234 -77.2168 88.3583
lradius 131.07
lwrist 70.877
lhand 22.2399 40.3207
lfingers 7.12502
lthumb 46.6158 63.1544
rfemur -14.7554 0.306307 16.5344
rtibia 46.5146
rfoot -20.4693 -9.28024
rtoes -14.3602
lfemur -13.4877 3.89104 -15.8321
ltibia 41.4928
lfoot -14.8765 -5.20005
ltoes -7.18261
580
root -0.176193 15.2421 -1.08383 -5.70367 2.12324 1.09502
lowerback 14.1256 1.11197 -1.1393
upperback 8.02744 1.32517 -1.71219
thorax 0.556065 0.670733 -1.31886
lowerneck -1.75842 -0.730959 -6.92951
upperneck 17.9399 -1.3024 5.33849
head 5.76514 -0.714058 2.77728
rclavicle -5.46658e-015 2.78299e-015
rhumerus -71.1028 66.3998 -86.3841
rradius 132.697
rwrist -34.9376
rhand 38.1927 11.2915
rfingers 7.12502
rthumb 60.8808 -1.52968
lclavicle -5.46658e-015 2.78299e-015
lhumerus -70.0973 -76.8318 87.1823
lradius 131.068
lwrist 70.8374
lhand 22.0607 40.1389
lfingers 7.12502
lthumb 46.4497 63.0438
rfemur -14.6192 0.318638 16.5204
rtibia 46.1712
rfoot -20.4459 -9.16904
rtoes -13.9407
lfemur -13.3655 3.7627 -15.8576
ltibia 41.185
lfoot -14.9118 -5.08999
ltoes -7.24371
581
root -0.157512 15.2572 -1.06234 -5.57872 2.19603 0.976251
lowerback 13.7786 1.06687 -1.1106
upperback 7.96788 1.27628 -1.72671
thorax 0.677257 0.647272 -1.33687
lowerneck -1.62775 -0.492399 -6.80721
upperneck 18.0775 -0.982938 5.24388
head 5.76421 -0.560049 2.74557
rclavicle -2.79292e-014 1.47101e-014
rhumerus -70.4208 65.9926 -84.9242
rradius 132.693
rwrist -34.7416
rhand 38.3791 11.4234
rfingers 7.12502
rthumb 61.0384 -1.21847
lclavicle -2.79292e-014 1.47101e-014
lhumerus -68.9269 -76.4894 85.3833
lradius 131.024
lwrist 70.8008
lhand 22.2293 40.2092
lfingers 7.12502
lthumb 46.6059 63.0471
rfemur -14.4602 0.241276 16.5536
rtibia 45.8279
rfoot -20.3606 -9.15626
rtoes -14.4332
lfemur -13.2588 3.66283 -15.8284
ltibia 40.8602
lfoot -14.8975 -5.03751
ltoes -7.30121
582
root -0.141052 15.2722 -1.04188 -5.45108 2.31137 0.984052
lowerback 13.4433 1.07115 -1.24329
upperback 7.92444 1.27502 -1.7092
thorax 0.806405 0.641682 -1.23721
lowerneck -1.60338 -0.280647 -6.8244
upperneck 18.2218 -0.691125 5.20515
head 5.78674 -0.423299 2.75355
rclavicle 1.88845e-015 -4.77083e-015
rhumerus -69.8994 65.5099 -83.4799
rradius 132.717
rwrist -34.6994
rhand 38.3257 11.5678
rfingers 7.12502
rthumb 60.9933 -1.12557
lclavicle 1.88845e-015 -4.77083e-015
lhumerus -67.7957 -76.1656 83.7746
lradius 130.935
lwrist 70.7082
lhand 22.6602 40.4322
lfingers 7.12502
lthumb 47.0047 63.0963
rfemur -14.3116 0.151597 16.4516
rtibia 45.4839
rfoot -20.3184 -9.10521
rtoes -14.5461
lfemur -13.172 3.5596 -15.9343
ltibia 40.5653
lfoot -14.8316 -4.99025
ltoes -7.60965
583
root -0.125751 15.2864 -1.02213 -5.3274 2.41424 1.0829
lowerback 13.1902 1.13821 -1.43768
upperback 7.81541 1.34673 -1.73269
thorax 0.823542 0.671648 -1.15693
lowerneck -1.61265 -0.137047 -6.79891
upperneck 18.4978 -0.501303 5.20452
head 5.86266 -0.330907 2.76297
rclavicle -1.68967e-015 -1.11319e-014
rhumerus -69.255 64.8663 -81.9288
rradius 132.689
rwrist -35.0508
rhand 38.503 11.355
rfingers 7.12502
rthumb 61.1431 -1.16656
lclavicle -1.68967e-015 -1.11319e-014
lhumerus -67.3105 -75.9543 82.8223
lradius 130.891
lwrist 70.6307
lhand 23.0046 40.7474
lfingers 7.12502
lthumb 47.3231 63.2699
rfemur -14.1678 0.0703132 16.2596
rtibia 45.1297
rfoot -20.2225 -9.09075
rtoes -14.3934
lfemur -13.0871 3.44898 -16.1344
ltibia 40.2997
lfoot -14.8058 -4.90135
ltoes -7.71665
584
root -0.109407 15.2981 -1.00118 -5.20051 2.45486 1.01771
lowerback 12.8948 1.14972 -1.49169
upperback 7.67735 1.36112 -1.7397
thorax 0.834647 0.677044 -1.13056
lowerneck -1.54093 0.0598789 -6.73975
upperneck 18.824 -0.244953 5.18637
head 5.93643 -0.206934 2.76532
rclavicle 6.55989e-015 7.15625e-015
rhumerus -68.2526 64.3497 -80.2108
rradius 132.619
rwrist -35.4698
rhand 38.8464 11.0387
rfingers 7.12502
rthumb 61.4322 -1.14474
lclavicle 6.55989e-015 7.15625e-015
lhumerus -67.0184 -75.5452 81.9358
lradius 130.89
lwrist 70.6395
lhand 23.4072 41.1469
lfingers 7.12502
lthumb 47.6949 63.5008
rfemur -14.0131 0.0576531 16.2518
rtibia 44.7671
rfoot -20.1845 -9.00531
rtoes -13.9547
lfemur -13.0107 3.34088 -16.1488
ltibia 40.0411
lfoot -14.7844 -4.84136
ltoes -7.52178
585
root -0.092271 15.3126 -0.978425 -5.06909 2.5263 0.832445
lowerback 12.5519 1.03876 -1.51906
upperback 7.58595 1.21976 -1.65638
thorax 0.917688 0.602966 -1.00579
lowerneck -1.49798 0.340992 -6.87481
upperneck 19.0465 0.151737 5.12247
head 5.97477 -0.0311274 2.7918
rclavicle 8.54774e-015 -1.98785e-015
rhumerus -67.2871 64.1309 -78.5718
rradius 132.617
rwrist -35.5683
rhand 38.8898 10.9215
rfingers 7.12502
rthumb 61.4686 -1.21869
lclavicle 8.54774e-015 -1.98785e-015
lhumerus -66.7028 -74.7655 81.0063
lradius 130.865
lwrist 70.5697
lhand 22.9122 40.8256
lfingers 7.12502
lthumb 47.2377 63.3864
rfemur -13.8274 0.0083223 16.3781
rtibia 44.3779
rfoot -20.1064 -9.01164
rtoes -14.109
lfemur -12.9468 3.26435 -16.0286
ltibia 39.8025
lfoot -14.7529 -4.86039
ltoes -7.41306
586
root -0.0734969 15.3261 -0.956358 -4.95946 2.60237 0.71118
lowerback 12.2893 0.943297 -1.55226
upperback 7.5159 1.0963 -1.61461
thorax 0.982242 0.538739 -0.925451
lowerneck -1.58637 0.570874 -6.96024
upperneck 19.2865 0.480144 5.08041
head 6.04532 0.117404 2.81442
rclavicle -6.4605e-015 -2.42517e-014
rhumerus -66.6199 63.7966 -77.2058
rradius 132.676
rwrist -35.4984
rhand 38.9329 10.8446
rfingers 7.12502
rthumb 61.5049 -1.25242
lclavicle -6.4605e-015 -2.42517e-014
lhumerus -66.2245 -74.0919 79.9659
lradius 130.863
lwrist 70.5059
lhand 21.4693 39.706
lfingers 7.12502
lthumb 45.9013 62.8416
rfemur -13.6186 -0.101458 16.4271
rtibia 43.9703
rfoot -19.9365 -9.08077
rtoes -14.6073
lfemur -12.8485 3.20896 -15.9807
ltibia 39.5808
lfoot -14.7865 -4.89092
ltoes -7.29871
